<svg version="1.1" id="Layer_1" xmlns="http://www.w3.org/2000/svg" xmlns:xlink="http://www.w3.org/1999/xlink" x="0px" y="0px"
	 width="100%" viewBox="0 0 1024 1024" enable-background="new 0 0 1024 1024" xml:space="preserve">
<path fill="#000000" opacity="1.000000" stroke="none" 
	d="
M275.994263,509.162628 
	C270.263214,507.359985 264.620270,506.550385 258.698395,503.504059 
	C267.260559,492.040741 277.570190,482.936646 287.666718,472.511475 
	C245.730682,433.458252 204.005890,394.601746 162.409439,355.864746 
	C163.625885,353.127502 165.542557,353.924622 167.035172,353.908325 
	C174.533875,353.826294 182.039886,354.056183 189.531311,353.810364 
	C193.532959,353.679047 196.464523,355.074463 199.284973,357.782806 
	C214.547638,372.439026 229.991592,386.906860 245.214966,401.603363 
	C248.315643,404.596710 251.475861,405.946198 255.829605,405.841339 
	C267.322632,405.564636 278.827820,405.833862 290.324951,405.665588 
	C294.377014,405.606293 295.919495,406.734528 295.548767,411.146332 
	C294.701447,421.229431 294.929352,421.253448 284.591980,421.273407 
	C278.966736,421.284241 273.341431,421.275330 266.534637,421.275330 
	C279.134460,432.976868 290.995148,443.991913 302.485565,454.663116 
	C313.754791,443.811096 324.867371,433.109924 336.224884,422.172913 
	C334.432770,420.410889 332.679474,420.679413 330.898499,420.728180 
	C325.403442,420.878510 319.905273,420.909210 314.408600,421.004822 
	C311.613098,421.053436 309.886658,420.109467 310.251251,416.910492 
	C310.400421,415.601959 310.220062,414.256958 310.354706,412.945526 
	C311.360626,403.148224 311.385620,403.040497 321.420105,404.143219 
	C325.838043,404.628754 330.313354,405.333313 334.092224,408.499207 
	C333.695343,409.205261 333.431671,409.797791 333.059418,410.311707 
	C332.206970,411.488556 330.700409,412.604065 332.319672,414.132904 
	C333.561859,415.305786 335.060791,414.915283 336.544220,414.373535 
	C343.515411,411.827728 349.550323,407.495667 354.536194,402.376099 
	C360.057037,396.707214 365.638184,394.195496 373.711426,394.406219 
	C396.195526,394.993134 418.704132,394.662445 441.202972,394.620636 
	C443.041473,394.617218 445.797119,395.568329 446.340088,392.944275 
	C446.928009,390.103241 444.048737,389.731842 442.102570,389.008484 
	C423.357269,382.040833 404.282776,376.123535 384.933502,371.072662 
	C382.180481,370.354034 378.762512,370.353149 378.071350,366.458344 
	C379.414246,364.511108 381.371490,365.054321 383.134308,365.057281 
	C385.838409,365.061859 388.117188,365.472290 388.586121,361.285614 
	C388.942993,358.099365 392.492065,358.749573 394.833466,359.544983 
	C412.905334,365.684418 431.702850,369.810211 448.733795,378.856812 
	C449.291351,379.153046 449.943939,379.270416 450.500732,379.454193 
	C455.090546,372.760315 454.874115,371.685791 448.283691,367.738129 
	C399.087311,338.269226 346.254486,318.338348 290.069977,307.013916 
	C270.795502,303.128937 251.340790,300.730316 231.850220,298.432526 
	C227.891006,297.965759 225.746826,298.970367 226.227280,303.405518 
	C226.439774,305.367157 226.263107,307.370972 226.263107,309.197510 
	C228.754654,311.140839 231.344986,310.624359 233.755112,310.612152 
	C247.250107,310.543793 260.687317,311.404999 274.122528,312.598358 
	C277.915985,312.935333 279.426666,314.349121 279.369873,318.147797 
	C279.195312,329.817322 280.375305,328.201355 269.713470,328.247192 
	C250.048126,328.331726 230.382111,328.275360 210.716400,328.245483 
	C204.248138,328.235626 204.048447,328.031219 204.042664,321.413116 
	C204.030121,307.089050 204.115814,292.764740 204.067352,278.440857 
	C204.038025,269.773651 205.456909,270.685791 211.823303,271.404724 
	C248.713898,275.570618 285.307220,281.281677 321.270782,290.652374 
	C366.288818,302.382416 409.678436,318.121124 449.357819,342.916779 
	C454.579132,346.179596 459.645996,349.712036 464.602905,353.365814 
	C466.995758,355.129669 468.836914,355.789062 470.840302,353.032898 
	C471.513550,352.106659 472.426849,351.287720 473.382507,350.646393 
	C476.401794,348.620209 476.436035,346.543060 474.344513,343.606476 
	C464.199677,329.362762 464.718658,314.426758 471.937958,299.201508 
	C472.645447,297.709503 473.601868,296.306244 474.612549,294.992371 
	C479.039642,289.237305 479.074219,289.243958 474.112457,283.784485 
	C470.526978,279.839264 466.687805,276.100952 463.365784,271.947266 
	C460.619080,268.512939 458.349854,267.484589 453.849640,269.588226 
	C446.040833,273.238434 437.958740,269.948853 434.859772,262.922607 
	C431.264008,254.770065 434.214325,245.601562 441.633484,241.872314 
	C448.056824,238.643631 457.196259,239.951431 460.190277,246.354446 
	C463.912018,254.313828 471.266510,258.281769 476.443787,264.519012 
	C481.324493,270.398926 487.061523,275.561554 492.285980,281.166321 
	C493.949829,282.951294 495.373199,283.697693 497.886444,282.758362 
	C507.774963,279.062469 517.786316,279.156403 527.683167,282.713715 
	C530.482239,283.719818 532.298706,283.152069 534.249023,281.048309 
	C540.815308,273.965515 547.558960,267.047424 554.166443,260.002228 
	C555.889221,258.165375 557.561096,256.310211 559.887451,255.253372 
	C561.575317,254.486572 562.220276,253.172028 562.704285,251.439133 
	C564.845093,243.773865 571.090210,239.572754 578.803833,240.415695 
	C586.594177,241.267014 592.358215,246.936646 592.891602,254.272614 
	C593.406372,261.352631 588.382507,268.185883 581.031677,270.210480 
	C576.909363,271.345917 572.767334,271.619232 568.996094,269.056793 
	C567.176758,267.820618 565.816895,267.868256 564.261353,269.591949 
	C558.474426,276.004425 552.572693,282.313232 546.398132,289.003326 
	C553.393250,297.460205 558.877502,306.508026 559.432495,317.959808 
	C559.976990,329.195099 556.284668,338.826843 549.624390,347.309631 
	C550.235901,348.229828 550.431702,348.720581 550.786072,349.029053 
	C560.119385,357.154236 556.231934,357.803101 566.723022,350.440491 
	C600.655762,326.626709 638.486267,311.204071 677.724792,298.827087 
	C712.723450,287.787537 748.607056,280.673309 784.815918,275.099091 
	C795.334167,273.479889 805.944641,272.467255 816.487488,270.995453 
	C820.590881,270.422638 822.231506,271.670502 822.185669,275.983887 
	C822.019287,291.647797 822.032959,307.315033 822.157471,322.979614 
	C822.188416,326.872009 820.727234,328.261597 816.863220,328.243652 
	C795.198303,328.142944 773.531921,328.122742 751.867737,328.291809 
	C747.544006,328.325500 746.471008,326.546936 746.610291,322.623505 
	C746.951416,313.019165 745.493103,312.982452 755.765747,312.400177 
	C768.566406,311.674591 781.356140,310.901703 794.177124,310.686493 
	C799.765991,310.592682 799.808044,310.146301 799.798218,302.390320 
	C799.791870,297.412933 796.658142,298.094696 793.721191,298.398468 
	C738.886902,304.070068 685.864258,316.952423 635.077393,338.578613 
	C615.601196,346.872009 596.514099,355.993347 578.377686,366.966949 
	C571.300781,371.248871 571.388306,371.393555 575.315979,379.536987 
	C581.334290,378.579376 586.284180,373.701660 593.323120,373.708344 
	C591.987915,376.875397 590.111755,379.355896 592.587830,382.414215 
	C593.598694,383.662750 591.489563,385.023529 590.209229,385.626526 
	C587.663452,386.825470 585.107849,388.070099 582.191833,388.269318 
	C579.904419,388.425598 578.367249,389.682953 578.445251,392.085480 
	C578.530273,394.705872 580.647705,394.627441 582.495300,394.611298 
	C605.322083,394.411865 628.197021,395.674683 650.956665,393.957214 
	C660.640198,393.226471 666.586426,397.269226 672.378601,403.670074 
	C675.591919,407.221039 679.198059,410.469482 682.918945,413.495392 
	C688.022095,417.645416 693.947876,416.541260 699.571106,414.954285 
	C703.047241,413.973206 706.408020,412.356415 709.316040,409.992218 
	C712.208313,407.640747 713.868347,409.037720 714.700317,412.091522 
	C716.498474,418.691772 714.717346,421.118866 708.061646,421.153473 
	C702.139282,421.184265 696.216553,421.159943 689.305603,421.159943 
	C701.302246,432.398560 712.546143,442.932068 724.263245,453.908813 
	C734.489197,444.359558 746.213989,433.410706 759.178711,421.303955 
	C750.838013,421.303955 743.968445,421.311310 737.098877,421.301849 
	C730.606262,421.292908 730.607178,421.285126 730.653381,414.819366 
	C730.661743,413.652802 730.786499,412.469757 730.639038,411.322418 
	C730.057373,406.796082 732.223267,405.618622 736.444458,405.685669 
	C748.107178,405.870850 759.775879,405.641327 771.441223,405.723083 
	C774.285339,405.743042 776.508728,405.003937 778.617554,403.020233 
	C794.392029,388.180878 810.312988,373.496613 826.034119,358.601349 
	C829.530823,355.288452 833.182861,353.604156 838.062012,353.793396 
	C844.882935,354.057953 851.724609,353.768463 858.557495,353.751434 
	C860.159058,353.747437 861.841553,353.478424 864.326355,355.123993 
	C822.420471,394.428436 779.967346,432.438904 738.420044,472.166351 
	C741.788086,477.163818 746.555725,481.097321 750.663513,485.579529 
	C755.052002,490.367828 759.693970,494.925690 764.272949,499.536804 
	C766.914978,502.197418 766.702698,504.045807 762.955139,505.201263 
	C737.578735,513.025269 711.969360,519.515930 685.103271,518.768677 
	C658.537720,518.029785 633.508301,510.986969 609.493896,500.021851 
	C599.174255,495.309845 589.456482,489.477203 580.125061,483.012482 
	C578.923279,482.179840 577.579346,481.552429 576.146484,480.742523 
	C575.546753,482.797089 576.889282,483.872589 577.598511,484.997406 
	C595.331177,513.122131 609.658081,542.983826 622.931519,573.394348 
	C624.467529,576.913391 624.855957,580.162231 623.798218,583.984314 
	C622.478088,588.754333 622.034790,593.768372 621.241821,598.681763 
	C621.059631,599.810364 621.182739,601.041626 619.255371,602.070557 
	C612.829834,591.574768 606.397522,581.067993 599.874634,570.413208 
	C597.286804,571.921143 597.546936,574.188354 597.550537,575.943542 
	C597.603455,601.623108 586.208496,622.764099 571.328674,642.528259 
	C554.190430,665.292114 535.338135,686.673828 517.625977,708.976562 
	C513.051575,714.736572 512.676025,714.710327 508.230316,709.061279 
	C489.068481,684.712830 467.547424,662.271423 449.817383,636.767212 
	C439.148407,621.420105 430.841339,605.026550 428.243225,586.278748 
	C427.480255,580.773315 427.659515,575.137451 426.233978,569.109131 
	C419.870880,580.093811 413.507782,591.078430 407.119507,602.106567 
	C405.091766,601.560120 405.209686,599.801514 404.867279,598.530945 
	C404.091003,595.650330 403.784576,592.636414 402.922241,589.787109 
	C400.709656,582.476196 401.809235,575.953064 404.878845,568.787842 
	C416.909485,540.705811 430.288940,513.380859 446.717377,487.592102 
	C447.520660,486.331177 448.227875,485.005432 448.914612,483.676147 
	C449.114990,483.288300 449.089386,482.783661 449.241180,481.905518 
	C444.636810,483.431976 441.197662,486.356079 437.448120,488.650238 
	C411.633514,504.444733 383.755554,514.764832 353.704346,517.868469 
	C330.594177,520.255310 307.488281,518.639954 285.047058,511.638184 
	C282.192200,510.747498 279.277405,510.048981 275.994263,509.162628 
M549.739746,599.344482 
	C554.985229,600.106323 560.226135,600.779541 565.329102,598.704895 
	C559.799866,596.503113 554.387512,597.894958 548.280457,598.625671 
	C540.736023,596.927795 533.066040,597.355652 525.430359,597.330933 
	C502.621490,597.257019 479.812103,597.288574 457.003540,597.168091 
	C452.858795,597.146240 451.461548,598.334412 453.249573,602.477600 
	C456.299530,609.544922 459.801697,616.300842 464.747101,622.263672 
	C466.251007,624.076965 467.926971,624.922791 470.308746,624.941162 
	C495.774475,625.137329 521.239441,625.437561 546.705261,625.626160 
	C551.077820,625.658569 555.358154,624.973938 558.884033,621.994507 
	C559.087830,621.822327 559.136841,621.466858 559.248474,621.217590 
	C558.664734,619.900146 556.022583,620.512573 556.590698,617.913391 
	C558.573242,615.542236 568.944092,617.759827 561.500977,609.913879 
	C562.156189,608.276489 563.294373,608.048950 564.462769,607.838806 
	C566.022827,607.558167 568.347168,607.944641 568.338379,605.675354 
	C568.328857,603.208740 565.920776,603.205872 564.167664,603.214722 
	C559.846985,603.236633 555.527222,603.488708 551.207764,603.665039 
	C549.679138,603.727356 548.072571,603.827820 547.351807,602.130005 
	C546.683350,600.555542 547.729248,599.657776 549.739746,599.344482 
M526.176208,446.516602 
	C526.665894,447.159637 527.155518,447.802673 527.750549,448.584076 
	C526.648315,449.511780 524.631958,449.206116 524.330872,451.196899 
	C529.263428,452.059998 531.844421,446.845795 536.516907,447.247864 
	C536.447388,446.826080 536.377808,446.404327 536.308289,445.982544 
	C532.878296,445.982544 529.448242,445.982544 526.451904,445.379578 
	C529.243042,441.482849 533.410034,443.102997 537.074036,442.756531 
	C539.878418,442.491302 543.025208,443.346588 545.241638,440.165497 
	C542.033264,437.921112 537.987915,440.458832 534.913879,437.705750 
	C537.221619,435.355194 539.748230,436.605957 542.081421,436.503906 
	C544.643555,436.391876 547.269531,436.311188 549.878845,435.013092 
	C546.784302,431.515381 541.823486,434.822174 538.601929,431.061920 
	C543.758850,428.702728 549.437195,431.439728 554.991272,428.059631 
	C545.817200,425.688263 537.254028,427.856659 529.148193,426.155273 
	C529.149170,425.588196 529.150146,425.021118 529.151184,424.454041 
	C537.612854,423.737793 546.074524,423.021545 554.536255,422.305267 
	C554.510986,421.879822 554.485657,421.454346 554.460388,421.028870 
	C547.377258,419.355499 539.987427,421.287354 532.773499,419.621643 
	C540.078247,416.506744 548.180359,417.760559 555.559570,415.268677 
	C549.675659,413.051422 543.240234,415.504272 537.534973,412.370026 
	C544.166199,409.597565 551.433167,410.655334 558.073120,408.526459 
	C552.467834,405.739838 546.171326,408.581360 540.621582,405.137268 
	C546.462341,401.444733 553.541809,404.055481 560.245605,401.603546 
	C554.363708,398.620697 547.841736,402.045746 542.225098,398.266083 
	C545.509644,394.810181 549.764038,397.014801 553.130981,395.027405 
	C550.045105,392.033783 545.629272,394.667999 542.631958,391.955414 
	C545.085449,387.848297 550.162048,391.466553 552.902893,388.093140 
	C549.631409,385.983124 545.348755,387.948853 542.713745,384.939789 
	C545.123962,381.643219 549.402832,384.161224 552.090942,381.319550 
	C549.008362,378.772552 544.757263,380.404938 541.859619,378.135162 
	C542.656616,376.113831 545.157593,376.834076 545.852417,374.834290 
	C543.504883,373.090179 539.437744,375.662506 537.644775,372.089905 
	C539.683411,369.688324 543.251038,371.653748 544.961304,368.807251 
	C542.344971,365.973480 538.242065,368.451996 535.827026,366.232391 
	C535.464905,364.324585 537.894714,364.347015 537.710999,362.799438 
	C536.580017,361.120056 534.837524,361.333099 533.196472,361.217590 
	C532.045227,361.136536 530.226379,361.202393 530.200134,360.002594 
	C530.101807,355.510406 526.422546,355.794220 523.834717,355.208588 
	C516.460876,353.539764 508.891144,353.319244 501.509308,354.802521 
	C475.490265,360.030701 458.756683,386.652191 464.834320,413.358246 
	C468.728699,430.470612 477.457245,444.000549 494.897552,450.235168 
	C496.637115,450.856995 497.061371,452.207916 497.003387,453.792938 
	C496.623535,464.176331 504.055206,469.371887 511.026978,474.817474 
	C512.534485,475.994965 514.472107,476.220001 516.163452,474.949829 
	C517.861694,473.674438 517.993164,471.912628 517.381775,469.997742 
	C514.129761,459.812500 519.054321,452.554016 526.176208,446.516602 
M428.499329,415.915100 
	C412.349915,415.849121 396.200043,415.826721 380.051605,415.662872 
	C378.001495,415.642059 376.554077,416.311035 375.200256,417.664978 
	C363.545959,429.320099 351.888824,440.972412 340.207550,452.600433 
	C338.145813,454.652771 338.212830,456.462067 340.996429,458.993317 
	C343.818207,453.202759 349.120850,452.297119 354.412872,451.339966 
	C359.047394,450.501709 359.852448,451.234314 358.651947,455.730713 
	C357.980896,458.244263 358.260468,460.304321 360.261597,462.055359 
	C361.243927,462.914917 362.455322,463.683655 362.058899,465.420959 
	C360.573425,467.356506 358.313049,467.872040 356.022064,468.382935 
	C343.692474,471.132385 331.373505,473.929565 319.040680,476.664490 
	C310.415253,478.577301 306.701050,486.160370 299.877563,492.050934 
	C319.851746,491.092926 337.252502,484.927917 355.802765,479.925323 
	C354.613708,486.058960 357.308929,491.471588 353.407684,496.890411 
	C394.111389,490.031799 428.744141,472.241486 459.664520,446.629700 
	C455.071655,438.211823 455.071655,438.211823 448.188965,436.973877 
	C450.141876,433.565277 451.425415,430.108490 448.256134,426.741089 
	C448.001221,426.470276 448.829651,425.300812 448.971893,424.515808 
	C449.973480,418.989014 447.586151,416.037079 441.986603,415.942047 
	C437.825073,415.871399 433.661530,415.917664 428.499329,415.915100 
M676.574829,470.107605 
	C664.183960,466.852112 651.768066,463.687592 639.416504,460.289185 
	C635.390015,459.181335 631.109680,458.134186 628.729919,453.988342 
	C630.815186,451.582184 633.388733,451.646729 635.294434,452.876251 
	C641.382629,456.804047 648.623657,456.878021 655.167786,459.256897 
	C659.404358,460.796936 663.809692,460.110504 667.060669,456.913727 
	C666.638428,454.318207 663.959106,454.515900 663.806274,451.402191 
	C671.663025,451.559998 679.428650,450.613129 684.851807,458.332123 
	C686.271179,456.727509 686.954651,455.336548 685.915771,454.316925 
	C675.836182,444.799225 666.073059,434.976440 657.083740,424.490387 
	C651.285767,417.727112 644.962280,415.278625 635.967285,415.630554 
	C618.345215,416.320099 600.665222,415.627686 583.011841,415.344574 
	C579.213440,415.283661 577.797974,416.976471 577.001038,420.447601 
	C576.299866,423.501587 576.993225,425.618896 579.855469,426.298950 
	C588.754517,428.413177 589.796570,438.091461 596.018066,442.730652 
	C596.112305,442.800903 595.865417,443.328644 595.691895,443.950623 
	C593.403442,445.300690 590.996765,444.528534 588.731079,443.548065 
	C584.454529,441.697327 580.268494,439.638489 576.025391,437.708832 
	C574.859253,437.178497 573.744934,436.299713 572.295593,437.103516 
	C567.289856,439.879639 566.718262,446.645203 571.164917,450.275818 
	C587.912781,463.950287 606.035278,475.350342 626.154724,483.411987 
	C640.506836,489.162750 655.145874,493.966492 670.998413,496.653992 
	C669.197693,492.418030 669.843506,488.457031 669.655151,484.550812 
	C669.467712,480.664398 670.731689,479.508545 674.672668,480.841492 
	C685.858276,484.624664 697.092102,488.332703 708.812317,490.145111 
	C713.897034,490.931396 718.979187,492.376831 724.597046,491.468994 
	C717.572205,484.118317 711.393799,476.868591 700.750671,475.526215 
	C692.869873,474.532257 685.173401,472.077332 676.574829,470.107605 
M554.686096,566.813477 
	C571.793030,566.688477 571.793030,566.688477 573.715332,563.846375 
	C564.959900,561.957825 555.840088,564.735352 546.470947,562.032166 
	C548.634460,558.932983 550.806641,558.897095 552.915344,558.970581 
	C557.899536,559.143921 562.878296,559.469238 567.862183,559.653259 
	C569.349670,559.708252 571.193237,559.718567 571.350159,557.717224 
	C571.544800,555.234253 569.453247,555.338867 567.831360,555.365845 
	C564.174133,555.426758 560.516541,555.815674 556.864746,555.750916 
	C553.424683,555.690002 549.702026,556.405640 546.113525,553.306274 
	C552.121826,548.748169 560.515442,553.645203 564.976990,547.083679 
	C563.004761,545.899597 560.625427,546.322754 558.352295,546.325012 
	C543.708862,546.339905 529.044128,546.951721 514.427063,546.361511 
	C494.298920,545.548706 474.192810,547.594238 454.086029,546.264282 
	C451.012482,546.061035 449.663483,547.514893 449.079926,550.492798 
	C447.819336,556.925659 448.123077,563.405884 447.942963,569.882751 
	C447.839722,573.594055 449.388519,574.981689 453.012024,574.704956 
	C464.618225,573.818542 476.226349,574.924805 487.838928,574.792297 
	C503.807526,574.610168 519.789490,575.458130 535.739075,573.957703 
	C539.434814,573.610046 543.668884,573.416443 545.772278,570.471619 
	C548.019348,567.325684 550.434753,566.603271 554.686096,566.813477 
M524.499878,496.271545 
	C506.859711,496.304749 489.219238,496.400757 471.579529,496.325958 
	C467.302032,496.307831 464.270325,497.676788 462.360168,501.676727 
	C459.567078,507.525665 456.553101,513.270264 453.575745,519.029602 
	C451.734772,522.590820 453.149139,524.033508 456.739136,523.938293 
	C461.056793,523.823792 465.387054,523.185059 469.682281,523.390564 
	C493.635773,524.536926 517.595459,523.517578 541.549133,523.808533 
	C544.607300,523.845642 547.475769,523.371399 550.161621,521.643738 
	C549.169189,520.232605 545.973450,521.055115 546.480042,518.522461 
	C546.984985,515.997986 549.584595,516.536987 551.435059,516.116455 
	C553.145813,515.727661 555.059692,516.595459 557.291809,514.917908 
	C552.263611,515.047852 548.233826,513.814087 543.217102,511.394897 
	C549.995056,508.193451 556.468567,510.913727 562.520081,507.997345 
	C557.312988,504.362366 551.201660,508.158905 546.317749,504.689148 
	C549.836121,500.423615 558.098877,505.900085 559.645020,497.444824 
	C548.039490,495.325897 536.731873,496.588043 524.499878,496.271545 
M496.632294,297.053436 
	C483.193817,306.207245 478.577301,325.599609 489.352509,332.572510 
	C488.460236,315.791443 496.813019,303.915955 509.237579,292.970062 
	C504.339996,294.020477 500.730591,295.087891 496.632294,297.053436 
M401.152130,366.639160 
	C400.914764,366.861877 400.437469,367.142090 400.475067,367.298950 
	C401.505890,371.601471 405.369141,370.820831 408.332062,371.479431 
	C409.520538,371.743652 410.864868,370.687164 410.358215,369.374023 
	C409.323303,366.691956 406.717529,366.293274 404.209564,366.079254 
	C403.408722,366.010925 402.579773,366.272614 401.152130,366.639160 
M582.922729,431.082855 
	C580.821960,430.211578 578.729980,429.593811 576.392029,431.174225 
	C577.751709,434.254272 580.220093,434.095795 582.580994,433.841675 
	C584.034790,433.685211 584.537109,432.776123 582.922729,431.082855 
z"/>
<path fill="#000000" opacity="1.000000" stroke="none" 
	d="
M224.752380,775.267822 
	C228.575470,779.631165 232.165604,783.726990 235.837402,787.915955 
	C237.489990,786.213867 236.839050,784.471069 236.845428,782.917664 
	C236.908127,767.598083 237.068161,752.275574 236.815399,736.960205 
	C236.736771,732.196838 238.588486,730.726379 242.958786,730.964661 
	C246.445358,731.154724 249.954086,731.105408 253.446136,730.976562 
	C256.362152,730.869080 257.685333,731.908691 257.661133,735.000000 
	C257.523010,752.636658 257.417908,770.274414 257.470093,787.911377 
	C257.506500,800.228821 257.885040,812.545105 257.937347,824.862671 
	C257.947815,827.326721 259.139252,830.997986 255.778793,831.797363 
	C252.073517,832.678711 247.854172,833.476562 244.675308,829.725037 
	C237.465408,821.216492 230.184357,812.768005 222.906540,804.317200 
	C214.760330,794.858154 206.593796,785.416504 198.407440,775.992249 
	C197.793762,775.285828 197.237259,774.333679 195.894302,774.445007 
	C194.922531,776.430542 195.390030,778.612122 195.382309,780.699036 
	C195.325592,796.018555 195.204971,811.340515 195.434937,826.656799 
	C195.501816,831.111755 193.956451,832.457214 189.659790,832.333313 
	C172.850861,831.848511 175.074829,834.880432 175.083176,817.838928 
	C175.096130,791.369080 175.395721,764.898865 175.706894,738.430359 
	C175.735016,736.038574 174.096497,732.491821 177.670746,731.497314 
	C181.520630,730.426086 185.423660,730.394409 188.583908,734.109009 
	C195.810547,742.603394 203.319794,750.857056 210.696838,759.223877 
	C215.320786,764.468262 219.912994,769.740540 224.752380,775.267822 
z"/>
<path fill="#000000" opacity="1.000000" stroke="none" 
	d="
M631.559204,780.358643 
	C641.508911,785.993164 646.151245,794.619202 645.214417,805.404480 
	C644.159058,817.554871 636.762878,825.340637 625.253662,829.119690 
	C620.649109,830.631531 615.897644,831.401001 611.004883,831.375061 
	C600.174011,831.317566 589.339600,831.254456 578.512512,831.478821 
	C574.324524,831.565552 572.604614,830.416199 572.636292,825.873291 
	C572.844055,796.046631 572.854980,766.218079 572.788574,736.390503 
	C572.779480,732.315491 574.192566,730.864380 578.313599,730.799072 
	C590.158569,730.611511 601.991455,731.087280 613.751038,732.141846 
	C621.794067,732.863098 629.189819,736.069763 634.929199,742.264099 
	C644.359619,752.442017 643.790955,767.798096 633.618591,777.221313 
	C632.738586,778.036377 631.007324,778.326172 631.559204,780.358643 
M592.493530,792.205750 
	C592.436523,797.676514 592.356934,803.147156 592.336243,808.618042 
	C592.330139,810.245850 592.115784,812.546753 594.342468,812.518433 
	C602.395386,812.415894 610.576599,814.161926 618.460999,811.078613 
	C622.767639,809.394470 625.373779,806.199951 625.446533,801.705322 
	C625.516357,797.390198 622.988708,793.979248 619.019958,792.420959 
	C610.472839,789.065002 601.644775,789.621704 592.493530,792.205750 
M620.733643,766.983704 
	C623.714417,758.216614 620.376526,752.492737 611.259277,751.372986 
	C606.159912,750.746765 600.980225,750.778320 595.837708,750.495972 
	C593.233459,750.353027 592.279846,751.711853 592.302734,754.147339 
	C592.346436,758.804260 592.393250,763.463196 592.301453,768.118591 
	C592.245605,770.951538 593.586487,771.949341 596.259338,771.895508 
	C601.579651,771.788330 606.903931,771.864136 612.223572,771.737427 
	C615.523987,771.658875 618.403015,770.518616 620.733643,766.983704 
z"/>
<path fill="#000000" opacity="1.000000" stroke="none" 
	d="
M442.331970,779.199707 
	C436.929321,795.363281 431.593384,811.131348 426.367035,826.935547 
	C425.344971,830.026306 424.142334,832.160767 420.273865,832.261108 
	C416.401123,832.361694 414.590332,830.780457 413.327759,827.338562 
	C410.346863,819.212402 407.080322,811.190674 403.904480,803.136536 
	C403.254639,801.488525 403.022034,799.588989 401.127899,798.292114 
	C397.332245,804.509521 395.472198,811.440857 392.793182,818.010925 
	C391.473053,821.248474 389.994385,824.462524 389.107361,827.824463 
	C388.148499,831.458618 386.022583,832.273682 382.562836,832.345825 
	C378.817322,832.423828 377.766907,830.302673 376.798462,827.419739 
	C366.832153,797.752197 356.794312,768.108704 346.820526,738.443665 
	C344.490967,731.514832 344.884155,731.043457 352.069183,731.040405 
	C365.424866,731.034729 365.396881,731.043335 369.310211,743.758118 
	C374.005157,759.012512 378.753998,774.250305 383.784637,790.479736 
	C386.954559,784.583862 387.776031,778.875977 389.594696,773.548340 
	C391.259094,768.672546 392.724060,763.712036 393.950195,758.708801 
	C394.816528,755.173950 396.954559,754.367554 400.162781,754.654297 
	C403.467804,754.949646 407.193817,753.599060 408.593201,758.586670 
	C411.198273,767.871338 414.210602,777.042053 417.075531,786.253296 
	C417.407074,787.319214 417.404358,788.585083 418.944824,789.444763 
	C422.866943,779.305664 425.624359,768.883484 428.652618,758.552856 
	C430.898560,750.890869 433.150513,743.227783 435.192688,735.510376 
	C435.958374,732.616943 437.536591,731.307251 440.427124,731.248779 
	C444.257416,731.171204 448.085754,730.947876 451.915863,730.920715 
	C457.514191,730.881042 457.940247,731.330566 456.257965,736.571472 
	C451.729614,750.678406 447.054047,764.738159 442.331970,779.199707 
z"/>
<path fill="#000000" opacity="1.000000" stroke="none" 
	d="
M257.810913,594.387695 
	C249.193069,593.348083 241.652039,590.621704 236.547516,583.907349 
	C233.799866,580.293213 231.315552,579.902222 227.750549,581.871277 
	C226.189148,582.733704 224.205139,582.809082 222.731781,584.679260 
	C226.317871,593.249695 233.331284,598.341858 241.332413,602.321472 
	C244.292938,603.794006 247.461349,604.901123 250.619949,605.908325 
	C253.879852,606.947815 255.221085,608.465576 252.867722,611.599243 
	C252.468445,612.130859 252.118103,612.700562 251.763611,613.264282 
	C245.543030,623.156677 245.556122,623.132202 234.979538,617.838257 
	C213.863922,607.268921 202.407684,590.380432 200.444107,566.701416 
	C199.763885,558.498657 201.564316,550.524170 200.570663,542.152100 
	C206.891586,540.919434 212.551376,542.901794 218.276489,543.047485 
	C219.094574,543.068298 219.906250,543.369141 220.719482,543.546875 
	C225.866592,544.671021 229.291290,543.976196 232.848450,538.682556 
	C242.743973,523.956665 264.988983,520.652771 279.625885,530.679871 
	C295.279541,541.403625 299.879883,563.563049 289.819061,579.424988 
	C282.421143,591.088501 271.523712,595.231079 257.810913,594.387695 
M271.205902,567.389465 
	C271.732971,564.630249 272.512360,561.891296 272.735596,559.107666 
	C273.230499,552.935913 269.877991,549.031982 263.492615,548.053894 
	C261.624603,547.767700 259.989075,547.046204 258.525085,545.915344 
	C253.938797,542.372742 249.747864,542.789124 245.798615,547.249084 
	C243.216110,550.165466 242.555008,552.699829 246.413300,555.429688 
	C251.174789,558.798645 253.942001,563.836487 255.102646,569.427673 
	C255.799026,572.782349 257.453949,573.837158 260.462830,574.000732 
	C265.225189,574.259583 268.970398,572.838379 271.205902,567.389465 
M223.692780,568.130676 
	C226.947876,567.238464 227.540909,564.523132 226.331635,562.261536 
	C224.255737,558.379211 220.367218,560.336243 216.705627,560.045532 
	C217.129929,563.369324 216.711655,566.334351 217.949692,569.024170 
	C219.910751,569.755859 221.384811,568.616028 223.692780,568.130676 
z"/>
<path fill="#000000" opacity="1.000000" stroke="none" 
	d="
M788.449463,534.550964 
	C789.926819,536.166626 791.665344,537.336731 792.270630,538.935730 
	C794.623535,545.151855 798.977417,544.738525 804.304993,543.639404 
	C809.974487,542.469788 815.840027,542.253174 821.618530,541.607544 
	C823.726562,541.372009 825.218689,541.797241 825.282349,544.370728 
	C825.647278,559.133423 826.836243,573.865723 820.217285,587.952698 
	C812.349426,604.697510 799.603271,615.376953 782.201172,620.907715 
	C780.825012,621.345093 779.415894,621.407288 778.567017,620.151062 
	C775.916443,616.228271 772.712952,612.626770 770.808655,608.310364 
	C772.849915,606.087036 775.299988,605.932983 777.422974,605.150085 
	C786.210388,601.909668 793.754456,596.879944 799.615784,589.565063 
	C800.959290,587.888367 803.798340,585.931519 800.992676,583.262878 
	C797.354919,579.802795 792.930786,579.553894 790.291260,582.310303 
	C780.622375,592.407410 769.000671,597.138672 755.138428,593.634583 
	C739.453613,589.669861 730.097229,575.792175 730.720947,558.533386 
	C731.605469,534.054749 756.043579,518.188721 778.386536,527.562439 
	C782.136841,529.135864 785.376892,531.394409 788.449463,534.550964 
M758.866455,543.020813 
	C751.209229,546.614380 747.483521,552.604797 747.218262,561.096558 
	C747.030518,567.106018 751.153259,568.544922 755.518799,569.900391 
	C759.779114,571.223267 763.826111,571.864258 767.195435,567.564758 
	C770.139832,563.807495 773.557922,560.413818 776.850952,556.939331 
	C780.583496,553.000916 780.512085,549.507141 776.462830,545.973694 
	C771.484314,541.629395 765.717224,541.300964 758.866455,543.020813 
M808.691162,562.106018 
	C808.381042,557.837830 805.071838,559.746948 802.996216,559.503662 
	C799.899414,559.140503 799.402527,561.565796 798.790100,563.930054 
	C798.104797,566.575623 799.973816,566.986572 801.620483,567.710144 
	C807.660278,570.363892 808.328979,569.903198 808.691162,562.106018 
z"/>
<path fill="#000000" opacity="1.000000" stroke="none" 
	d="
M270.651794,764.999878 
	C270.653412,755.007019 270.795593,745.511108 270.587952,736.022827 
	C270.505493,732.253296 272.049408,731.018921 275.551361,731.027649 
	C294.703369,731.075623 313.855682,731.081726 333.007538,731.004272 
	C336.821045,730.988892 338.325714,732.501770 338.259216,736.378052 
	C337.971741,753.141724 340.356659,750.023254 324.808014,750.271545 
	C315.484161,750.420410 306.148224,750.507935 296.832764,750.187012 
	C292.301147,750.030945 290.928192,751.668274 291.276184,755.961914 
	C291.584564,759.767212 291.600830,763.640869 291.265198,767.441833 
	C290.880554,771.797974 292.795410,772.822083 296.759979,772.735474 
	C306.248291,772.528198 315.747406,772.813293 325.235565,772.602844 
	C329.175354,772.515503 330.470367,773.907898 330.387573,777.810608 
	C330.058258,793.335999 332.303772,791.024902 317.263092,791.204102 
	C310.269501,791.287415 303.270844,791.311951 296.280426,791.131897 
	C292.755402,791.041138 291.024628,792.040710 291.268097,795.921143 
	C291.538788,800.234375 291.535065,804.589539 291.276245,808.903931 
	C291.045410,812.751953 292.681244,813.763916 296.267181,813.667786 
	C308.081879,813.351013 319.902618,813.224548 331.721893,813.128235 
	C338.021118,813.076843 338.337067,813.369873 338.236755,819.528198 
	C337.998840,834.135376 340.155792,832.116516 325.453064,832.215088 
	C310.298492,832.316650 295.142670,832.234558 279.987396,832.216553 
	C270.074982,832.204834 269.820312,832.183167 270.153870,822.441284 
	C270.803741,803.461487 270.566132,784.480713 270.651794,764.999878 
z"/>
<path fill="#000000" opacity="1.000000" stroke="none" 
	d="
M471.602966,780.400635 
	C458.420502,767.957458 463.123260,742.078552 481.311432,734.685120 
	C499.037292,727.479675 515.148071,730.105957 529.845276,742.251953 
	C531.908203,743.956909 532.450562,745.487305 530.530396,747.641235 
	C527.984070,750.497498 525.478516,753.400330 523.125977,756.416138 
	C521.236023,758.838928 519.626709,757.313782 517.984802,756.297363 
	C511.927368,752.547852 505.558685,749.938171 498.236725,750.301331 
	C495.340485,750.444946 492.615112,751.096436 490.125702,752.510864 
	C483.619659,756.207275 483.542572,764.157227 490.157593,767.656128 
	C493.505646,769.427124 497.236115,770.531921 500.872955,771.688538 
	C509.285431,774.364258 517.805237,776.731567 524.779602,782.576843 
	C539.638672,795.030334 536.939880,819.008118 519.649353,827.935059 
	C502.476074,836.801453 478.162537,832.899109 464.443756,819.247864 
	C461.743866,816.561096 461.420013,814.529724 464.349945,811.842224 
	C466.666016,809.717896 468.672485,807.222046 470.617523,804.735596 
	C473.119965,801.536621 475.199127,801.852295 477.800476,804.758728 
	C483.876678,811.547485 491.706207,814.242920 500.687561,813.651184 
	C507.257050,813.218323 512.106812,809.690308 512.792114,805.103149 
	C513.353394,801.345886 511.969147,798.662354 508.564392,796.906921 
	C503.641907,794.368835 498.309082,793.018677 493.085236,791.340210 
	C485.455627,788.888611 477.865326,786.344604 471.602966,780.400635 
z"/>
<path fill="#000000" opacity="1.000000" stroke="none" 
	d="
M663.594360,828.625366 
	C652.149719,822.849182 647.025391,813.376770 646.850342,801.388916 
	C646.539124,780.075623 646.875854,758.753174 646.624512,737.438354 
	C646.563904,732.290894 648.453369,730.802429 653.320190,730.878723 
	C668.617920,731.118591 666.275146,729.040955 666.319153,743.707947 
	C666.372681,761.528259 666.278625,779.349243 666.407410,797.168823 
	C666.496826,809.532898 675.565186,816.208496 687.151978,812.667908 
	C693.300232,810.789124 696.721130,806.235413 696.755554,799.122375 
	C696.853821,778.804504 696.783875,758.485779 696.796631,738.167419 
	C696.801208,730.915344 696.822876,730.915344 703.991455,731.039124 
	C716.262756,731.250977 716.285034,731.250977 716.294678,743.337769 
	C716.308533,760.658203 715.529724,778.018799 716.448364,795.289978 
	C717.994568,824.356689 690.494934,840.390625 663.594360,828.625366 
z"/>
<path fill="#000000" opacity="1.000000" stroke="none" 
	d="
M799.418091,774.437195 
	C805.213623,766.932007 810.792114,759.711792 816.355469,752.511230 
	C814.482788,750.281311 812.355225,750.958496 810.478088,750.942078 
	C801.321350,750.862122 792.162415,750.789490 783.007141,750.919250 
	C778.529236,750.982666 776.586243,749.181274 777.060242,744.654846 
	C778.684021,729.149109 774.517944,731.074524 790.838318,730.928528 
	C806.654480,730.787048 822.473389,730.945312 838.289246,730.783752 
	C842.651428,730.739258 844.335327,732.036011 844.498596,736.768311 
	C844.740784,743.785156 843.021851,749.408691 838.466309,754.992249 
	C824.269104,772.393066 810.623291,790.244141 796.806580,807.954102 
	C795.834534,809.200134 794.188965,810.128418 794.359680,812.183411 
	C795.893066,813.593506 797.809570,812.937561 799.534302,812.941772 
	C812.520996,812.973633 825.510254,813.047424 838.493408,812.814087 
	C843.062561,812.731995 844.608521,814.311768 844.445007,818.914246 
	C843.914917,833.834045 846.639832,831.770935 831.459900,831.899170 
	C815.310303,832.035583 799.157776,831.923523 783.010498,832.174255 
	C778.241272,832.248291 776.474670,830.680847 776.830444,825.795898 
	C777.300659,819.339294 777.161316,812.835327 777.197998,806.351257 
	C777.216187,803.131104 778.783386,800.624512 780.645935,798.248718 
	C786.808228,790.388733 793.012817,782.561768 799.418091,774.437195 
z"/>
<path fill="#000000" opacity="1.000000" stroke="none" 
	d="
M729.047546,730.959595 
	C742.025085,730.978455 754.511414,730.973206 766.997375,731.024353 
	C774.219727,731.053894 773.515259,731.361084 774.584656,738.167236 
	C776.379639,749.590515 772.248596,758.124878 765.092163,766.618774 
	C753.522095,780.351013 742.886841,794.870850 731.856506,809.057922 
	C731.161011,809.952454 730.105347,810.654236 730.294312,812.166016 
	C731.676147,813.768066 733.630676,813.002380 735.334595,813.008057 
	C746.488647,813.045349 757.644836,813.086792 768.796448,812.897339 
	C772.996155,812.825989 775.205566,814.056274 774.395935,818.628967 
	C774.223999,819.600037 774.343994,820.622375 774.326111,821.621033 
	C774.131104,832.504700 776.560547,832.160889 763.470581,832.122498 
	C747.654846,832.076111 731.838867,832.077515 716.023193,832.013489 
	C708.777527,831.984192 705.852478,827.282166 709.932007,821.106812 
	C714.725525,813.850708 718.603088,806.571533 718.292175,797.588562 
	C718.219299,795.484619 720.029907,794.057129 721.213623,792.477722 
	C730.296997,780.357971 739.423584,768.270691 748.494446,756.141541 
	C749.444153,754.871704 750.960999,753.829468 750.705872,751.513000 
	C747.935547,750.441345 744.933655,751.084473 742.027710,750.985596 
	C735.378723,750.759216 728.721130,751.252930 722.069031,750.547974 
	C719.064392,750.229553 717.948425,748.941101 718.363403,746.002563 
	C718.595154,744.362488 718.589783,742.683655 718.618835,741.021057 
	C718.799194,730.715698 717.191895,730.909302 729.047546,730.959595 
z"/>
<path fill="#000000" opacity="1.000000" stroke="none" 
	d="
M678.315430,665.296570 
	C681.858154,662.232605 685.135071,659.406494 688.390320,656.555603 
	C689.254944,655.798340 690.087158,654.316406 691.200073,654.774536 
	C695.631287,656.598633 697.555298,660.814209 699.965088,664.555542 
	C701.692932,667.238098 700.057251,668.884216 698.315186,670.544556 
	C688.386353,680.007629 677.259705,687.882324 665.556824,694.946960 
	C655.996460,700.718140 645.974365,705.591980 635.485657,709.466736 
	C630.715759,711.228821 629.840393,710.709473 629.848511,705.648132 
	C629.867310,693.826477 630.088318,682.004944 630.072144,670.183594 
	C630.067444,666.760071 631.440247,664.894348 634.496643,663.251221 
	C663.663208,647.571228 687.167297,625.754639 704.795715,597.672058 
	C705.326660,596.826294 705.955688,596.036011 706.425476,595.159119 
	C708.137756,591.962646 709.930298,591.497864 713.042053,593.934204 
	C723.631042,602.224792 723.892029,602.243591 715.782776,613.191162 
	C697.996826,637.201965 677.392090,658.288086 651.211121,673.251587 
	C646.504150,675.941833 645.692932,679.340027 646.960815,684.999573 
	C658.765686,680.329712 668.516785,673.118469 678.315430,665.296570 
z"/>
<path fill="#000000" opacity="1.000000" stroke="none" 
	d="
M381.351990,705.739746 
	C362.008972,696.752991 344.924683,684.980530 328.736786,671.786987 
	C324.943634,668.695496 324.170563,666.255493 327.794281,662.130676 
	C334.536804,654.455688 334.299377,654.176147 342.183105,660.751526 
	C351.798187,668.770935 361.956055,675.988525 373.010529,681.895508 
	C374.571045,682.729431 376.045349,683.977234 378.239166,683.691162 
	C379.381531,679.266479 378.744171,675.904297 374.333221,673.260376 
	C357.091705,662.926270 341.842194,650.108765 328.064270,635.480164 
	C319.582733,626.474854 312.172729,616.700867 305.629761,606.215881 
	C303.750122,603.203796 304.095276,601.349548 306.901886,599.116211 
	C316.570801,591.422058 316.571136,591.276245 323.358887,601.208313 
	C341.313751,627.480347 363.469971,649.086426 392.164948,663.469238 
	C394.398682,664.588867 396.032318,665.919128 395.971344,668.719971 
	C395.677887,682.196533 395.452637,695.674683 395.172363,709.151550 
	C395.162811,709.610718 394.824982,710.063110 394.433990,711.026794 
	C389.868408,710.150757 385.986633,707.443787 381.351990,705.739746 
z"/>
<path fill="#000000" opacity="1.000000" stroke="none" 
	d="
M312.427002,664.219604 
	C315.196625,681.922424 301.855042,694.918335 288.231812,696.883423 
	C275.282837,698.751343 255.819458,690.541138 255.817749,669.831055 
	C255.817337,664.665588 254.065018,662.705017 249.479935,661.821777 
	C245.502380,661.055542 241.989777,659.062927 238.908295,656.439331 
	C236.653458,654.519531 234.967941,652.144958 236.004440,649.016479 
	C237.062302,645.823669 239.997421,645.046265 242.869858,644.986084 
	C248.242859,644.873535 253.620544,645.667114 258.334564,648.260925 
	C262.314514,650.450928 264.810699,649.402466 267.348816,645.873474 
	C263.920044,642.844543 260.529602,639.904480 258.118225,636.089233 
	C257.320068,634.826477 256.464294,633.587769 255.797668,632.256592 
	C254.179916,629.025940 253.833267,625.492249 256.561707,622.984253 
	C259.374115,620.398987 262.778107,621.527100 265.811218,623.364075 
	C271.235352,626.649292 273.824524,632.123779 276.684570,637.394043 
	C277.433868,638.774841 277.620514,640.926880 279.956482,640.426697 
	C281.899963,640.010437 281.507263,638.128662 281.838501,636.737671 
	C283.033417,631.719666 284.066772,626.652283 286.784149,622.143066 
	C288.195831,619.800415 289.932861,617.826111 292.514435,616.775085 
	C296.184906,615.280823 298.730103,616.730713 299.346680,620.648987 
	C300.228790,626.254517 298.879059,631.612366 297.136353,636.822205 
	C295.944824,640.384277 296.422791,642.543823 299.961731,644.511475 
	C307.430054,648.664062 311.629761,655.217285 312.427002,664.219604 
M275.430054,668.852417 
	C281.869354,666.040771 283.841797,661.054504 280.532013,655.511963 
	C275.488373,657.037048 272.517639,660.505981 271.372284,665.546143 
	C270.787262,668.120789 271.459564,669.924194 275.430054,668.852417 
z"/>
<path fill="#000000" opacity="1.000000" stroke="none" 
	d="
M778.017456,661.270508 
	C776.526794,661.707092 775.440063,662.190308 774.304016,662.385010 
	C770.350098,663.062500 769.028748,664.647644 769.868164,669.143555 
	C771.648010,678.676270 763.364380,690.390930 752.429138,695.081604 
	C738.833679,700.913330 722.786926,695.254028 715.945557,681.479736 
	C709.382263,668.265442 712.462402,652.459229 725.754089,644.262207 
	C729.250610,642.105896 729.947510,640.180786 728.170288,636.742554 
	C725.974121,632.493652 725.524414,627.874878 725.642761,623.150085 
	C725.707336,620.572754 725.685791,617.921265 728.574768,616.878357 
	C731.516602,615.816467 734.255554,616.775818 736.301025,618.997070 
	C740.485474,623.541382 742.658386,629.034668 743.373657,635.148010 
	C743.656433,637.564636 743.609924,640.266907 747.118896,640.935974 
	C749.728210,637.847900 750.117432,633.635559 752.491577,630.399048 
	C754.492798,627.670837 756.691467,625.236145 759.378662,623.260620 
	C762.009155,621.326782 765.044312,620.920105 767.794861,622.699463 
	C770.725220,624.595215 770.731384,627.640564 769.898865,630.746582 
	C768.917786,634.407410 766.626404,637.195862 764.123352,639.910339 
	C762.238831,641.953979 759.703552,643.452759 758.514038,646.268372 
	C760.564270,649.829285 763.330017,649.601440 766.578674,648.196350 
	C772.434021,645.663757 778.415710,643.763306 784.933105,645.527100 
	C790.587463,647.057312 791.718445,650.603149 787.891357,654.970764 
	C785.302246,657.925781 782.084900,659.910767 778.017456,661.270508 
M733.812256,657.450195 
	C731.406982,659.119751 729.616821,661.335693 728.738770,664.092896 
	C727.810730,667.007324 728.039856,669.744385 731.254028,671.323242 
	C732.962463,672.162415 734.894226,672.081055 735.720825,670.480713 
	C737.570007,666.900391 740.779053,663.533081 739.275696,659.023254 
	C738.579529,656.934631 736.748657,655.953979 733.812256,657.450195 
z"/>
<path fill="#000000" opacity="1.000000" stroke="none" 
	d="
M369.074585,241.292023 
	C370.373383,260.557037 361.647980,273.154694 345.119690,276.402344 
	C324.227814,280.507416 305.855042,261.835175 310.166779,240.879654 
	C313.201721,226.129517 324.873413,215.968887 339.039673,215.744751 
	C353.325012,215.518738 365.011353,225.326126 369.074585,241.292023 
M325.474976,245.972809 
	C326.567627,248.579315 328.371307,250.297714 332.378143,251.043213 
	C330.072784,247.263962 332.857574,245.920731 334.582916,244.011642 
	C335.584442,242.903442 336.481262,241.694687 337.364014,240.486481 
	C338.719055,238.631958 339.643799,236.664047 337.777344,234.621368 
	C335.802734,232.460358 333.566223,233.066147 331.421631,234.331177 
	C327.288422,236.769211 325.930603,240.781677 325.474976,245.972809 
z"/>
<path fill="#000000" opacity="1.000000" stroke="none" 
	d="
M698.632690,273.975891 
	C677.803528,282.845001 661.504272,270.981628 657.144897,254.603119 
	C652.150696,235.839142 666.431091,216.162537 685.263855,215.761139 
	C697.752197,215.494965 710.357117,224.376999 714.358887,236.262833 
	C718.737793,249.268707 714.436035,263.165466 703.608765,270.869354 
	C702.121887,271.927368 700.522461,272.827393 698.632690,273.975891 
M678.478760,248.716873 
	C679.410034,244.627823 683.948975,243.004257 685.080627,239.032181 
	C685.573303,237.302734 686.681396,235.441833 685.025330,233.966507 
	C683.348145,232.472351 681.256348,232.991776 679.472351,233.982635 
	C675.249451,236.328064 673.156189,240.207870 672.540344,244.809113 
	C672.080322,248.246185 674.794312,250.253662 678.478760,248.716873 
z"/>
<path fill="#000000" opacity="1.000000" stroke="none" 
	d="
M608.294189,614.225586 
	C609.451721,611.519897 611.364807,610.946472 613.719910,610.895752 
	C619.200012,610.777832 624.705017,611.223816 630.150879,610.192017 
	C632.572998,609.733154 633.824219,611.343079 634.844238,613.142700 
	C638.293579,619.228394 641.996887,625.155457 646.347412,630.634338 
	C648.447754,633.279358 646.979431,634.846313 645.127747,636.497925 
	C637.524109,643.279968 628.888062,648.644470 620.522766,654.376831 
	C617.232727,656.631348 613.771851,658.637085 610.489685,660.902466 
	C607.905823,662.685791 606.346191,661.777527 604.795776,659.444519 
	C601.757751,654.872681 598.682861,650.311218 595.350220,645.954346 
	C593.259949,643.221680 593.592896,640.900696 595.270508,638.233459 
	C600.056152,630.624634 604.212708,622.666565 608.294189,614.225586 
z"/>
<path fill="#000000" opacity="1.000000" stroke="none" 
	d="
M385.920685,619.976318 
	C388.982788,612.111511 394.154724,610.774109 402.218231,610.550598 
	C412.775146,610.257874 418.301453,613.399536 421.474457,623.287537 
	C423.212891,628.705078 426.950562,633.500122 429.922455,638.495056 
	C431.543396,641.219482 431.666840,643.529907 429.710266,646.273193 
	C426.725861,650.457581 424.184082,654.956421 421.422363,659.301392 
	C419.800995,661.852234 417.923950,662.217712 415.149292,660.626404 
	C403.140198,653.738892 391.966156,645.711060 381.398010,636.791443 
	C378.443848,634.298096 377.942810,631.872498 380.349152,628.672363 
	C382.339600,626.025269 383.942993,623.087158 385.920685,619.976318 
z"/>
<path fill="#000000" opacity="1.000000" stroke="none" 
	d="
M388.310242,294.786682 
	C374.064880,288.628204 374.079132,288.636292 381.424866,275.669983 
	C383.884705,271.327972 386.359314,266.988098 388.620941,262.542328 
	C389.999939,259.831665 391.929779,258.605896 394.963440,258.711761 
	C398.788727,258.845245 402.654907,259.078125 406.443329,258.686493 
	C411.678925,258.145264 414.827271,260.180023 417.110382,264.854523 
	C419.660065,270.074921 422.794830,275.015747 425.789520,280.009583 
	C427.024445,282.068878 427.177307,283.905457 426.032776,286.083710 
	C422.862671,292.117096 419.384827,297.991272 416.800201,304.332672 
	C415.320099,307.964111 412.642426,306.736908 410.142609,305.510681 
	C402.976593,301.995667 395.817963,298.465637 388.310242,294.786682 
z"/>
<path fill="#000000" opacity="1.000000" stroke="none" 
	d="
M586.679199,223.378571 
	C574.905884,219.468781 563.247803,216.783493 551.340759,215.239166 
	C547.848999,214.786285 545.489868,213.745026 546.575989,209.592438 
	C546.658569,209.276794 546.640137,208.929016 546.634216,208.596786 
	C546.442688,197.809860 545.016052,197.328094 558.696838,199.311615 
	C584.939575,203.116470 609.305664,212.055878 631.783569,226.047943 
	C642.264954,232.572388 642.151611,232.762833 636.103577,243.150406 
	C635.611511,243.995468 635.018677,244.781769 634.145996,246.082184 
	C619.355286,236.434906 603.588806,229.136993 586.679199,223.378571 
z"/>
<path fill="#000000" opacity="1.000000" stroke="none" 
	d="
M638.829346,293.923157 
	C630.915955,297.850708 623.263733,301.468689 615.799377,305.439636 
	C612.401794,307.247131 610.549988,306.892395 608.857605,303.254059 
	C606.129028,297.388062 603.049500,291.673798 599.876831,286.031219 
	C598.483704,283.553680 598.448608,281.582520 599.934814,279.126068 
	C603.198181,273.731934 606.208801,268.182678 609.244019,262.653656 
	C610.743774,259.921600 612.767029,258.389648 616.042480,258.674805 
	C618.021423,258.847076 620.028137,258.693115 622.022400,258.695892 
	C634.664856,258.713623 634.634949,258.730682 640.567017,269.726715 
	C643.090332,274.404022 645.587830,279.112518 648.432434,283.593903 
	C650.779358,287.291199 649.711731,289.254211 645.964539,290.671997 
	C643.642090,291.550720 641.429321,292.719238 638.829346,293.923157 
z"/>
<path fill="#000000" opacity="1.000000" stroke="none" 
	d="
M463.064697,217.140732 
	C441.052795,221.448135 420.912842,229.487885 401.869110,240.401154 
	C401.435852,240.649429 401.006134,240.904068 400.578949,241.162598 
	C391.690613,246.541992 389.617126,245.736496 385.477692,235.935318 
	C384.210663,232.935287 386.263245,231.971298 387.892242,230.767166 
	C396.626740,224.310730 406.082001,219.079483 416.000153,214.689728 
	C434.798431,206.369644 454.201721,200.287994 474.802704,198.319809 
	C478.566376,197.960236 479.394653,198.891510 479.408875,202.414200 
	C479.457703,214.486618 479.564941,214.482025 467.405579,216.335449 
	C466.091766,216.535706 464.790649,216.819077 463.064697,217.140732 
z"/>
<path fill="#000000" opacity="1.000000" stroke="none" 
	d="
M502.299744,267.299988 
	C498.339600,268.856964 496.194672,267.875214 494.310242,264.308380 
	C491.127594,258.284393 487.359467,252.560196 483.679230,246.811295 
	C479.806854,240.762222 482.057953,232.146942 488.421204,229.005753 
	C489.753845,228.347916 490.644440,228.864639 491.562958,229.644028 
	C492.960052,230.829544 494.301086,232.083084 495.724915,233.234802 
	C503.663727,239.656433 512.361328,242.130707 522.278381,238.326828 
	C524.296875,237.552597 526.334229,236.725861 528.439148,236.300323 
	C532.543518,235.470520 536.979065,238.460632 536.419495,242.332947 
	C535.270081,250.286636 535.332092,258.622009 530.556702,265.736115 
	C528.900208,268.203857 526.942078,268.139008 524.480957,267.459534 
	C517.262146,265.466461 509.989075,265.660217 502.299744,267.299988 
z"/>
<path fill="#000000" opacity="1.000000" stroke="none" 
	d="
M647.309692,577.812866 
	C654.344543,575.948792 661.145874,576.998352 667.913025,577.024963 
	C669.902039,577.032837 671.100830,578.607971 672.126404,580.193176 
	C675.376709,585.217224 678.578186,590.275146 681.944275,595.220764 
	C683.252930,597.143494 683.453735,598.773804 681.964661,600.625916 
	C674.248169,610.223694 665.397522,618.687195 656.622009,626.683777 
	C654.646118,626.644409 654.052490,625.553467 653.456543,624.597595 
	C648.445679,616.560364 643.517517,608.471130 638.451904,600.468811 
	C637.336792,598.707275 637.203003,597.200989 638.154297,595.377869 
	C641.148926,589.639099 644.058777,583.856018 647.309692,577.812866 
z"/>
<path fill="#000000" opacity="1.000000" stroke="none" 
	d="
M521.800293,223.130615 
	C511.651276,227.076935 501.248199,224.696274 496.283356,217.543243 
	C491.079315,210.045532 491.653015,197.556122 497.506592,190.913269 
	C504.818878,182.615021 518.835632,182.073578 526.614014,189.788956 
	C535.317139,198.421600 534.952881,212.386002 525.781860,220.339813 
	C524.658020,221.314484 523.361328,222.089798 521.800293,223.130615 
z"/>
<path fill="#000000" opacity="1.000000" stroke="none" 
	d="
M768.000366,358.401123 
	C762.172913,358.381165 756.844116,358.285309 751.518311,358.372742 
	C748.583191,358.420929 747.423157,357.341827 747.393799,354.270966 
	C747.276794,342.032043 747.192566,342.029541 759.437439,342.013794 
	C774.587769,341.994263 789.738098,341.956482 804.888428,341.975281 
	C812.317078,341.984528 812.553711,342.310089 812.405518,349.457458 
	C812.212769,358.749542 813.649536,358.390656 802.963257,358.380646 
	C791.475586,358.369904 779.987915,358.393280 768.000366,358.401123 
z"/>
<path fill="#000000" opacity="1.000000" stroke="none" 
	d="
M257.999695,358.388184 
	C244.709167,357.784576 231.933136,359.418121 219.120255,358.512939 
	C214.932098,358.217041 213.771072,356.622498 213.718246,352.726532 
	C213.580582,342.572083 213.450943,342.657257 223.680649,342.570465 
	C239.972015,342.432220 256.265015,342.280701 272.551300,341.885590 
	C276.820251,341.781982 278.554413,343.002747 278.422668,347.484070 
	C278.049011,360.196198 279.686096,358.150665 267.479401,358.364227 
	C264.486908,358.416595 261.492859,358.382019 257.999695,358.388184 
z"/>
<path fill="#000000" opacity="1.000000" stroke="none" 
	d="
M624.895996,202.143799 
	C616.170532,197.552734 607.716431,193.231857 598.732727,190.114243 
	C595.271912,188.913239 594.327271,187.131912 596.011841,183.813950 
	C602.229553,171.566879 597.848938,171.895782 611.598145,177.336914 
	C625.745911,182.935776 638.696838,190.773102 651.321655,199.205444 
	C654.794312,201.524872 655.055542,203.386520 652.518982,206.724609 
	C646.406860,214.768127 646.582642,214.852066 638.191101,209.803970 
	C633.914429,207.231232 629.548706,204.806381 624.895996,202.143799 
z"/>
<path fill="#000000" opacity="1.000000" stroke="none" 
	d="
M382.220825,602.063354 
	C383.257507,603.976685 383.340942,605.674805 382.438171,607.162964 
	C378.828674,613.113525 375.137695,619.015320 371.412048,624.894165 
	C370.245728,626.734558 368.833160,626.540283 367.269135,625.180176 
	C360.109314,618.953796 353.609497,612.113403 347.819427,604.595276 
	C346.358215,602.697998 345.932220,601.088684 348.650635,599.910767 
	C353.084625,597.989258 354.741119,594.046570 355.824585,589.747375 
	C356.478790,587.151733 357.091858,584.576721 359.477600,582.895020 
	C360.433868,582.220947 361.616455,580.988403 362.521027,581.557922 
	C366.853241,584.285400 372.944855,584.405823 375.270325,590.159973 
	C376.956696,594.332703 379.333679,598.134949 382.220825,602.063354 
z"/>
<path fill="#000000" opacity="1.000000" stroke="none" 
	d="
M256.445160,250.493301 
	C252.498459,245.739792 253.601807,241.634918 255.773987,236.559799 
	C259.134094,228.709213 263.947632,225.039612 272.462036,226.618729 
	C275.445770,227.172104 279.337769,224.804306 281.355316,227.974686 
	C284.611084,233.090912 289.265717,238.160507 289.052277,244.353943 
	C288.881195,249.318207 285.027588,253.702286 281.844879,257.725037 
	C279.696045,260.441071 276.265991,259.095093 273.372253,259.346436 
	C272.548492,259.417999 271.699158,259.252808 270.884796,259.365082 
	C263.826508,260.338440 258.980957,257.664032 256.445160,250.493301 
z"/>
<path fill="#000000" opacity="1.000000" stroke="none" 
	d="
M735.170959,243.129486 
	C736.118591,240.981171 737.220581,239.273544 737.880249,237.409393 
	C740.992981,228.612961 746.906799,225.157318 756.253052,226.583862 
	C759.775818,227.121536 762.754944,227.416092 764.400452,230.979263 
	C764.809631,231.865265 765.580750,232.582108 766.173157,233.385818 
	C772.783875,242.354263 772.112915,249.896454 764.071899,257.552582 
	C762.755920,258.805542 761.167969,259.015106 759.489746,259.178589 
	C745.009338,260.589203 740.184631,257.493439 735.170959,243.129486 
z"/>
<path fill="#000000" opacity="1.000000" stroke="none" 
	d="
M653.750977,542.214600 
	C656.301514,545.518555 658.864136,548.400635 660.836121,551.641968 
	C663.633728,556.240479 661.909790,561.161804 660.356323,565.579651 
	C659.130249,569.066711 655.202148,567.843994 652.350159,567.856628 
	C638.400208,567.918701 638.421753,567.861084 633.427673,554.890625 
	C630.559509,547.441345 627.641541,540.013733 624.028687,532.875122 
	C623.091980,531.024475 621.683716,529.173828 622.509521,526.547729 
	C627.058960,525.386169 629.646240,528.619019 631.755127,531.488953 
	C634.490845,535.211914 637.779053,536.839600 642.243103,537.136230 
	C646.469849,537.416931 650.315674,539.019104 653.750977,542.214600 
z"/>
<path fill="#000000" opacity="1.000000" stroke="none" 
	d="
M702.163208,574.530273 
	C692.194336,577.728210 684.879395,575.177246 681.023926,567.439819 
	C677.260254,559.886902 679.169189,550.960205 685.512268,546.450623 
	C692.758118,541.299255 703.890076,543.064758 708.559326,550.244812 
	C713.356567,557.621521 713.234375,569.365051 702.163208,574.530273 
z"/>
<path fill="#000000" opacity="1.000000" stroke="none" 
	d="
M451.265015,708.960815 
	C438.571411,705.351807 426.321503,701.773682 414.747742,696.162781 
	C410.573364,694.139160 409.456360,691.826599 411.547852,687.574463 
	C415.028259,680.498657 415.649780,680.035645 421.214233,682.313782 
	C431.968109,686.716553 442.863922,690.623657 454.287872,693.040833 
	C457.675232,693.757629 463.772491,693.447205 459.537964,700.479004 
	C458.101837,702.863892 462.777893,707.208862 466.683563,707.947021 
	C468.947418,708.374878 473.332916,706.778442 472.613190,710.849915 
	C471.964142,714.521606 468.166016,712.068542 465.847443,711.737000 
	C461.091095,711.056885 456.393005,709.969299 451.265015,708.960815 
z"/>
<path fill="#000000" opacity="1.000000" stroke="none" 
	d="
M314.696655,555.888916 
	C318.065247,545.925537 325.988037,541.364014 334.800537,543.963135 
	C342.786774,546.318665 347.975464,555.408997 346.058990,563.687500 
	C344.264832,571.437683 335.622101,577.288574 327.982758,575.924500 
	C318.043304,574.149719 313.221313,567.054688 314.696655,555.888916 
z"/>
<path fill="#000000" opacity="1.000000" stroke="none" 
	d="
M306.013306,372.686707 
	C311.500275,372.727875 316.490112,372.733276 321.478333,372.826233 
	C323.985626,372.872955 326.491028,373.076416 328.247833,376.165710 
	C323.512939,380.009369 322.933899,383.931061 329.433746,386.602661 
	C328.231689,389.648895 325.959839,389.168304 324.127686,389.194275 
	C315.314636,389.319336 306.497650,389.201569 297.685913,389.370728 
	C294.150787,389.438568 293.024750,387.860443 293.057373,384.572052 
	C293.201202,370.064117 291.727814,373.019135 306.013306,372.686707 
z"/>
<path fill="#000000" opacity="1.000000" stroke="none" 
	d="
M213.723206,464.265991 
	C219.819504,471.240051 219.715698,479.452637 219.745224,487.601074 
	C219.748566,488.524292 219.305435,489.697296 218.656616,490.333679 
	C214.944351,493.974792 210.768234,497.183990 208.861435,502.761383 
	C203.119125,494.253967 202.545242,455.390320 208.297668,447.137146 
	C209.526031,453.496307 208.978271,459.700165 213.723206,464.265991 
z"/>
<path fill="#000000" opacity="1.000000" stroke="none" 
	d="
M868.935486,327.437866 
	C869.191711,331.506561 869.157715,335.153961 869.347778,338.789703 
	C869.507080,341.837189 867.959167,343.026917 865.202942,343.033478 
	C857.578857,343.051575 849.954590,343.013489 842.330444,342.999420 
	C839.482666,342.994171 838.043640,341.588043 838.057739,338.723511 
	C838.059326,338.392303 838.028931,338.061035 838.025940,337.729706 
	C837.896118,323.300293 837.780151,325.961823 849.127808,326.010895 
	C855.656189,326.039124 862.318787,324.604980 868.935486,327.437866 
z"/>
<path fill="#000000" opacity="1.000000" stroke="none" 
	d="
M174.981079,343.203674 
	C170.000412,343.167633 165.514343,343.066833 161.029968,343.117859 
	C157.775787,343.154877 156.268768,341.864044 156.068176,338.437622 
	C155.347565,326.128815 155.363815,326.025879 167.821747,325.986115 
	C172.473343,325.971283 177.124893,325.942688 181.776474,325.940277 
	C182.770935,325.939758 183.990677,325.667572 184.723724,326.128937 
	C189.854980,329.358398 186.486801,334.457336 187.247162,338.663574 
	C187.724457,341.304016 186.593628,343.208496 183.449921,343.164398 
	C180.792801,343.127106 178.134293,343.187073 174.981079,343.203674 
z"/>
<path fill="#000000" opacity="1.000000" stroke="none" 
	d="
M258.450470,381.672729 
	C254.390015,382.034241 250.288483,380.800201 249.065659,386.733398 
	C248.383896,390.041351 244.101028,389.326050 241.153946,389.003235 
	C238.288910,388.689453 238.674454,386.254974 238.707352,384.338135 
	C238.940094,370.775208 236.222595,372.902069 250.104752,372.747040 
	C257.596680,372.663422 265.091461,372.842621 272.583649,372.769348 
	C276.545013,372.730652 278.518951,374.399750 278.296509,378.446014 
	C278.250885,379.275696 278.436768,380.135406 278.287689,380.938934 
	C277.781494,383.667419 279.832428,387.221985 276.107941,388.922485 
	C272.820709,390.423401 265.979797,388.575134 263.736176,385.508362 
	C262.406738,383.691193 261.254364,381.975891 258.450470,381.672729 
z"/>
<path fill="#000000" opacity="1.000000" stroke="none" 
	d="
M172.994934,313.047607 
	C168.844803,313.057861 165.191040,313.080139 161.537399,313.066467 
	C160.545135,313.062744 159.231522,313.338959 158.612595,312.826202 
	C154.031097,309.030609 157.612717,303.932068 156.725800,299.492401 
	C156.251785,297.119568 157.811111,295.829834 160.276917,295.833069 
	C168.081970,295.843292 175.887024,295.842590 183.692078,295.853271 
	C184.021576,295.853729 184.412003,295.823975 184.671417,295.979492 
	C190.014877,299.182983 186.394180,304.312042 187.271225,308.480927 
	C187.769730,310.850494 186.875565,312.798767 183.950485,312.863464 
	C180.464462,312.940552 176.977768,312.986603 172.994934,313.047607 
z"/>
<path fill="#000000" opacity="1.000000" stroke="none" 
	d="
M855.989258,313.097351 
	C851.177612,313.124542 846.862732,313.187317 842.548645,313.151276 
	C841.120239,313.139343 839.041626,313.475311 838.861633,311.531494 
	C838.435303,306.926147 838.157593,302.249908 839.081177,297.679779 
	C839.428101,295.963409 841.359375,295.953979 842.847229,295.943848 
	C850.314575,295.893005 857.782410,295.922424 865.249695,295.867310 
	C868.162964,295.845795 869.409180,297.126282 869.359497,300.090332 
	C869.104492,315.308868 871.507935,312.629822 855.989258,313.097351 
z"/>
<path fill="#000000" opacity="1.000000" stroke="none" 
	d="
M260.650818,471.747101 
	C261.332062,478.082520 258.914673,482.572388 254.008163,484.721558 
	C249.163559,486.843628 243.024963,485.632294 239.789963,481.915863 
	C236.261307,477.862091 235.844452,472.887482 238.800125,468.042755 
	C241.204437,464.101746 244.986176,462.507416 249.425079,462.795654 
	C254.943283,463.153870 258.734161,466.036285 260.650818,471.747101 
z"/>
<path fill="#000000" opacity="1.000000" stroke="none" 
	d="
M787.887512,477.291077 
	C784.342346,484.906372 777.080872,487.929901 770.603394,484.834900 
	C764.994080,482.154755 762.935486,474.515289 766.175476,468.402679 
	C768.544067,463.933868 774.212708,461.687378 779.452820,463.140717 
	C785.685547,464.869385 788.634583,469.616791 787.887512,477.291077 
z"/>
<path fill="#000000" opacity="1.000000" stroke="none" 
	d="
M540.165771,176.664429 
	C537.558655,171.591263 537.694092,167.020523 541.383606,163.017059 
	C544.021545,160.154572 547.393799,158.959229 551.297485,160.178497 
	C556.086487,161.674271 558.831238,165.033783 559.112427,169.960785 
	C559.373413,174.532990 557.054688,178.014709 552.858582,179.752487 
	C548.203430,181.680344 543.770081,181.316833 540.165771,176.664429 
z"/>
<path fill="#000000" opacity="1.000000" stroke="none" 
	d="
M350.009857,170.784576 
	C355.245728,176.043976 355.643188,181.958588 351.374939,186.365036 
	C347.542786,190.321259 341.387482,190.766571 337.399170,187.376129 
	C332.987305,183.625610 332.274750,177.027542 335.804626,172.610825 
	C339.019775,168.587814 344.172852,167.831055 350.009857,170.784576 
z"/>
<path fill="#000000" opacity="1.000000" stroke="none" 
	d="
M691.897705,178.243942 
	C691.112305,184.520386 688.291443,188.216263 683.612427,189.077728 
	C679.463318,189.841660 675.589478,189.227692 672.952332,185.442139 
	C670.312317,181.652374 670.157837,177.628799 672.544250,173.716919 
	C674.734314,170.126846 678.305908,168.544800 682.327637,169.014542 
	C687.442627,169.611984 690.755066,172.662933 691.897705,178.243942 
z"/>
<path fill="#000000" opacity="1.000000" stroke="none" 
	d="
M372.142883,567.287964 
	C365.542816,567.235535 360.327332,559.775940 362.301270,553.927490 
	C362.662170,552.858276 363.393921,552.011963 364.424133,552.189941 
	C371.469025,553.406677 378.987518,552.480469 385.396851,556.605896 
	C387.625397,558.040283 389.149200,559.958984 388.179626,562.868286 
	C387.286804,565.547363 385.259155,566.897400 382.567291,567.064026 
	C379.258606,567.268799 375.934387,567.222473 372.142883,567.287964 
z"/>
<path fill="#000000" opacity="1.000000" stroke="none" 
	d="
M301.177795,344.815674 
	C304.173950,348.738342 308.993774,347.998505 312.452576,350.278656 
	C315.384308,352.211304 320.986023,352.903015 320.143921,356.799194 
	C319.193420,361.196777 313.916718,358.779633 310.552216,358.895386 
	C306.081970,359.049164 301.589417,358.522614 297.105072,358.318542 
	C295.394470,358.240692 293.546143,358.225555 293.240570,356.058624 
	C292.606689,351.564484 292.779999,347.008972 294.200531,342.732666 
	C295.130707,339.932465 298.081757,340.727539 301.177795,344.815674 
z"/>
<path fill="#000000" opacity="1.000000" stroke="none" 
	d="
M729.664429,374.281006 
	C733.205383,378.234741 732.149780,382.629456 731.918518,386.865601 
	C731.862183,387.897552 731.109558,388.860474 730.061340,388.953613 
	C725.223511,389.383514 720.306030,390.177399 715.288330,387.263550 
	C718.677917,383.278381 717.926697,379.795807 714.167725,376.299072 
	C719.456604,373.963989 724.087341,372.170410 729.664429,374.281006 
z"/>
<path fill="#000000" opacity="1.000000" stroke="none" 
	d="
M818.522461,479.881226 
	C816.854370,482.829468 811.184448,482.343811 808.469727,479.396667 
	C805.656372,476.342377 805.578613,468.011139 808.262878,464.797363 
	C809.539429,463.269043 810.599731,463.781982 812.123962,464.556396 
	C818.489075,467.790375 820.055603,472.965515 818.522461,479.881226 
z"/>
<path fill="#000000" opacity="1.000000" stroke="none" 
	d="
M331.995300,707.928955 
	C329.287781,702.554871 329.834137,699.503967 333.688599,696.881714 
	C337.054260,694.591980 341.330139,695.096924 343.976593,698.236755 
	C346.676788,701.440247 346.971741,704.853882 344.129730,708.111267 
	C340.985107,711.715454 337.005280,711.686035 331.995300,707.928955 
z"/>
<path fill="#000000" opacity="1.000000" stroke="none" 
	d="
M694.078979,706.704224 
	C691.242676,710.081116 688.150940,711.740601 684.192139,709.789307 
	C681.246887,708.337708 679.702515,705.732727 679.900208,702.475830 
	C680.110779,699.005249 682.028564,696.588501 685.443726,695.553772 
	C688.446960,694.643799 691.153503,695.441711 693.200256,697.643188 
	C695.557190,700.178284 696.087830,703.194275 694.078979,706.704224 
z"/>
<path fill="#000000" opacity="1.000000" stroke="none" 
	d="
M318.071259,202.098541 
	C317.963135,204.370880 317.204193,206.019379 316.007721,207.419449 
	C313.284088,210.606567 308.377930,210.828842 305.412354,207.969208 
	C302.547272,205.206451 302.724640,199.686935 305.771423,196.794800 
	C308.837402,193.884491 313.574341,194.217957 316.203735,197.700851 
	C317.067322,198.844772 317.438995,200.360062 318.071259,202.098541 
z"/>
<path fill="#000000" opacity="1.000000" stroke="none" 
	d="
M718.366638,208.462357 
	C712.143250,211.295883 707.367737,209.241272 706.777466,203.777802 
	C706.351379,199.833801 708.090576,197.009872 711.746704,195.495804 
	C715.002441,194.147583 717.752441,195.399918 719.649109,197.951157 
	C722.278564,201.488159 721.994324,205.069168 718.366638,208.462357 
z"/>
<path fill="#000000" opacity="1.000000" stroke="none" 
	d="
M754.662476,382.352783 
	C755.838074,383.933746 757.355042,384.208466 758.744995,384.739594 
	C760.106812,385.260040 761.446167,385.839294 762.916321,386.442352 
	C760.390442,388.997498 750.645203,390.322693 748.471069,388.623535 
	C747.463501,387.836029 747.219666,386.665588 747.189392,385.501709 
	C747.115845,382.675262 747.102539,379.845825 747.135864,377.018433 
	C747.174194,373.767151 748.972900,372.527313 752.031799,373.096558 
	C754.902954,373.630859 756.022217,375.298859 754.877808,378.161285 
	C754.375977,379.416504 754.000427,380.682159 754.662476,382.352783 
z"/>
<path fill="#000000" opacity="1.000000" stroke="none" 
	d="
M510.628296,167.309784 
	C506.814880,165.644684 505.241486,163.075668 506.446716,159.300003 
	C507.385376,156.359482 509.293060,154.587433 512.628296,154.658447 
	C515.905212,154.728256 517.854675,156.406418 518.738342,159.415482 
	C520.057739,163.907928 516.813660,167.208786 510.628296,167.309784 
z"/>
<path fill="#000000" opacity="1.000000" stroke="none" 
	d="
M447.751465,667.331421 
	C450.710175,670.157837 453.863190,672.378662 455.149231,676.520752 
	C449.639709,675.044800 443.949188,674.185303 439.029022,669.851196 
	C441.946838,667.823303 444.174896,665.893066 447.751465,667.331421 
z"/>
<path fill="#000000" opacity="1.000000" stroke="none" 
	d="
M783.731812,379.396179 
	C783.348511,378.078369 782.976868,377.155212 782.727417,376.200104 
	C782.355530,374.776245 782.486938,373.496429 784.255310,373.173309 
	C785.743713,372.901337 786.992065,373.491669 787.364380,374.957489 
	C788.434937,379.172577 788.281555,383.456299 787.526489,387.696442 
	C787.290527,389.021484 786.098267,389.491608 784.807739,389.062164 
	C783.148621,388.510132 782.426880,387.205200 782.840088,385.566040 
	C783.322388,383.652466 784.179504,381.826019 783.731812,379.396179 
z"/>
<path fill="#000000" opacity="1.000000" stroke="none" 
	d="
M807.955078,452.770233 
	C804.804504,450.159241 804.483032,446.690948 803.355896,442.403229 
	C805.830750,444.252869 807.329529,445.872833 809.613159,446.299438 
	C811.495850,446.651093 812.092957,448.389008 811.790344,450.189514 
	C811.470337,452.093353 810.850037,453.855438 807.955078,452.770233 
z"/>
<path fill="#000000" opacity="1.000000" stroke="none" 
	d="
M572.165894,289.964050 
	C575.322205,291.484100 574.996460,294.002106 574.871155,297.806732 
	C572.598572,294.788300 570.221619,293.197296 572.165894,289.964050 
z"/>
<path fill="#000000" opacity="1.000000" stroke="none" 
	d="
M512.838806,450.383972 
	C517.796448,446.091980 521.773560,441.028687 527.978760,438.823944 
	C522.636963,443.433289 518.804016,449.641663 512.862915,453.453186 
	C511.231995,452.133972 511.995026,451.377777 512.838806,450.383972 
z"/>
</svg>